<svg xmlns="http://www.w3.org/2000/svg" xmlns:xlink="http://www.w3.org/1999/xlink" width="112" zoomAndPan="magnify" viewBox="0 0 84 83.999999" height="112" preserveAspectRatio="xMidYMid meet" version="1.0"><defs><clipPath id="ba59ab0a2d"><path d="M 25.199219 25.199219 L 58.949219 25.199219 L 58.949219 58.949219 L 25.199219 58.949219 Z M 25.199219 25.199219 " clip-rule="nonzero"/></clipPath></defs><g clip-path="url(#ba59ab0a2d)"><path fill="#f3f8f9" d="M 42.074219 35.492188 C 46.945312 35.492188 50.894531 39.445312 50.894531 44.3125 C 50.894531 49.1875 46.945312 53.136719 42.074219 53.136719 C 37.203125 53.136719 33.253906 49.1875 33.253906 44.3125 C 33.253906 39.445312 37.203125 35.492188 42.074219 35.492188 Z M 39.34375 28.347656 C 39.96875 28.347656 40.46875 28.847656 40.46875 29.472656 C 40.46875 30.09375 39.96875 30.597656 39.34375 30.597656 C 38.722656 30.597656 38.21875 30.09375 38.21875 29.472656 C 38.21875 28.847656 38.722656 28.347656 39.34375 28.347656 Z M 34.46875 28.347656 C 35.089844 28.347656 35.59375 28.847656 35.59375 29.472656 C 35.59375 30.09375 35.089844 30.597656 34.46875 30.597656 C 33.847656 30.597656 33.34375 30.09375 33.34375 29.472656 C 33.34375 28.847656 33.847656 28.347656 34.46875 28.347656 Z M 29.589844 28.347656 C 30.210938 28.347656 30.714844 28.847656 30.714844 29.472656 C 30.714844 30.09375 30.210938 30.597656 29.589844 30.597656 C 28.96875 30.597656 28.464844 30.09375 28.464844 29.472656 C 28.464844 28.847656 28.96875 28.347656 29.589844 28.347656 Z M 28.941406 25.199219 C 26.871094 25.199219 25.199219 26.871094 25.199219 28.941406 L 25.199219 55.207031 C 25.199219 57.28125 26.871094 58.949219 28.941406 58.949219 L 55.207031 58.949219 C 57.28125 58.949219 58.949219 57.28125 58.949219 55.207031 L 58.949219 28.941406 C 58.949219 26.871094 57.28125 25.199219 55.207031 25.199219 L 28.941406 25.199219 " fill-opacity="1" fill-rule="nonzero"/></g><path fill="#f03395" d="M 39.761719 40.875 C 40.058594 40.875 40.347656 40.992188 40.554688 41.203125 L 42.074219 42.722656 L 43.59375 41.203125 C 43.804688 40.992188 44.089844 40.875 44.390625 40.875 C 44.6875 40.875 44.972656 40.992188 45.1875 41.203125 C 45.621094 41.644531 45.625 42.355469 45.1875 42.796875 L 43.664062 44.316406 L 45.1875 45.832031 C 45.621094 46.273438 45.625 46.984375 45.1875 47.425781 C 44.742188 47.863281 44.03125 47.863281 43.59375 47.425781 L 42.074219 45.90625 L 40.554688 47.425781 C 40.117188 47.863281 39.40625 47.863281 38.964844 47.425781 C 38.527344 46.988281 38.523438 46.273438 38.964844 45.835938 C 38.964844 45.835938 38.964844 45.832031 38.964844 45.832031 L 40.484375 44.316406 L 38.964844 42.796875 C 38.527344 42.359375 38.523438 41.644531 38.964844 41.207031 C 38.964844 41.203125 38.964844 41.203125 38.964844 41.203125 C 39.175781 40.992188 39.460938 40.875 39.761719 40.875 Z M 42.074219 35.492188 C 37.203125 35.492188 33.253906 39.441406 33.253906 44.3125 C 33.253906 49.183594 37.203125 53.136719 42.074219 53.136719 C 46.945312 53.136719 50.894531 49.183594 50.894531 44.3125 C 50.894531 39.441406 46.945312 35.492188 42.074219 35.492188 " fill-opacity="1" fill-rule="nonzero"/><path fill="#f03395" d="M 29.589844 28.34375 C 28.96875 28.34375 28.464844 28.847656 28.464844 29.46875 C 28.464844 30.09375 28.96875 30.59375 29.589844 30.59375 C 30.210938 30.59375 30.714844 30.09375 30.714844 29.46875 C 30.714844 28.847656 30.210938 28.34375 29.589844 28.34375 " fill-opacity="1" fill-rule="nonzero"/><path fill="#f03395" d="M 34.46875 28.34375 C 33.847656 28.34375 33.34375 28.847656 33.34375 29.46875 C 33.34375 30.09375 33.847656 30.59375 34.46875 30.59375 C 35.089844 30.59375 35.59375 30.09375 35.59375 29.46875 C 35.59375 28.847656 35.089844 28.34375 34.46875 28.34375 " fill-opacity="1" fill-rule="nonzero"/><path fill="#f03395" d="M 39.347656 28.34375 C 38.722656 28.34375 38.222656 28.847656 38.222656 29.46875 C 38.222656 30.09375 38.722656 30.59375 39.347656 30.59375 C 39.96875 30.59375 40.472656 30.09375 40.472656 29.46875 C 40.472656 28.847656 39.96875 28.34375 39.347656 28.34375 " fill-opacity="1" fill-rule="nonzero"/><path fill="#f3f8f9" d="M 39.761719 40.875 C 39.460938 40.875 39.175781 40.992188 38.964844 41.203125 C 38.527344 41.644531 38.523438 42.355469 38.964844 42.796875 L 40.484375 44.316406 L 38.964844 45.832031 C 38.527344 46.273438 38.523438 46.984375 38.964844 47.425781 C 39.40625 47.863281 40.117188 47.863281 40.554688 47.425781 L 42.074219 45.90625 L 43.59375 47.425781 C 44.03125 47.863281 44.742188 47.863281 45.1875 47.425781 C 45.621094 46.988281 45.625 46.273438 45.1875 45.835938 C 45.1875 45.835938 45.1875 45.832031 45.1875 45.832031 L 43.664062 44.316406 L 45.1875 42.796875 C 45.621094 42.359375 45.625 41.644531 45.1875 41.207031 C 45.1875 41.203125 45.1875 41.203125 45.1875 41.203125 C 44.972656 40.992188 44.6875 40.875 44.390625 40.875 C 44.089844 40.875 43.804688 40.992188 43.59375 41.203125 L 42.074219 42.722656 L 40.554688 41.203125 C 40.347656 40.992188 40.058594 40.875 39.761719 40.875 " fill-opacity="1" fill-rule="nonzero"/></svg>